# xmcd
#
# Track frame offsets:
#	183
#	21260
#	45175
#	67395
#	86138
#	106913
#	131800
#	155020
#	175395
#	192858
#	213295
#	233775
#	255218
#	279020
#
# Disc length: 4055 seconds
#
# Revision: 0
# Processed by: cddbd v1.5.2PL0 Copyright (c) Steve Scherf et al.
# Submitted via: EZCDAudioConverter 1.3.4.1
#
DISCID=bd0fd50e
DTITLE=Various Artist - Friends in High Places (Vol 2)
DYEAR=1996
DGENRE=Gospel
TTITLE0=Over And Over Again - Marvin Sapp
TTITLE1=Miracle - Clarke Sisters
TTITLE2=Thank you Lord - Disciples Of Christ
TTITLE3=Every Time - Cece Winans
TTITLE4=My Treasure - Sam Baker
TTITLE5=Turn To Jesus - J.Moss
TTITLE6=Don't Be Afraid - Kingdom
TTITLE7=Whatever It Takes - Sign Of The Times
TTITLE8=Heaven Is Mine - Futch Brothers
TTITLE9=Call His Name - Howard Hewett
TTITLE10=It's In Gods Hands -  Anointed
TTITLE11=If I Ever Fall - Winans
TTITLE12=Never Alone - Kelli Williams
TTITLE13=Any Way - Terry Garmon
EXTD=
EXTT0=
EXTT1=
EXTT2=
EXTT3=
EXTT4=
EXTT5=
EXTT6=
EXTT7=
EXTT8=
EXTT9=
EXTT10=
EXTT11=
EXTT12=
EXTT13=
PLAYORDER=
